#!OML:ASF E:\motion texture\Top Level 1\Subject 1\Session 1\male.ASF
:FULLY-SPECIFIED
:DEGREES
143
root 11.2189 17.7805 4.92766 210.268 -86.4275 -212.864
lowerback 3.73006 -3.87168 -2.86645
upperback -2.21119 -5.30214 0.922877
thorax -4.02453 -2.54683 2.91747
lowerneck -18.0062 -1.95902 -4.85488
upperneck 18.605 -2.90846 6.39705
head 8.96837 -1.06619 2.60926
rclavicle 3.73715e-014 3.57812e-015
rhumerus -50.4533 7.47176 -77.101
rradius 60.2138
rwrist 0.839177
rhand -7.27606 -6.65884
rfingers 7.12502
rthumb 18.6053 -35.7891
lclavicle 3.73715e-014 3.57812e-015
lhumerus -18.3145 -4.82328 88.88
lradius 65.1889
lwrist 4.39445
lhand -12.5403 3.82556
lfingers 7.12502
lthumb 13.5363 33.3656
rfemur -50.9948 -9.36392 16.0457
rtibia 74.3958
rfoot 193.189 1.53253
rtoes 20.9808
lfemur -5.64281 -1.32071 -26.1083
ltibia 23.8877
lfoot 348.637 -0.852488
ltoes 7.01132
144
root 11.0964 17.7946 4.92045 217.727 -86.5532 -220.744
lowerback 4.30929 -4.14852 -3.39983
upperback -2.07822 -5.71616 0.947971
thorax -4.13245 -2.73486 3.30391
lowerneck -18.0781 -1.79135 -4.76832
upperneck 18.5834 -2.66585 6.27707
head 8.9555 -0.956856 2.58507
rclavicle -3.32467e-014 -8.34896e-015
rhumerus -51.3186 7.11882 -76.3476
rradius 60.081
rwrist 0.480885
rhand -7.09641 -6.78305
rfingers 7.12502
rthumb 18.7781 -35.8967
lclavicle -3.32467e-014 -8.34896e-015
lhumerus -16.7475 -4.88814 88.5263
lradius 65.7407
lwrist 4.35111
lhand -12.5121 3.60657
lfingers 7.12502
lthumb 13.5635 33.1448
rfemur -54.18 -9.77553 16.2869
rtibia 73.1268
rfoot 193.007 1.65211
rtoes 22.196
lfemur -4.49507 -1.7036 -26.6108
ltibia 23.4156
lfoot 348.548 -0.812425
ltoes 6.76054
145
root 10.9716 17.8068 4.9121 224.872 -86.6228 -228.263
lowerback 4.82056 -4.40825 -3.87588
upperback -1.95761 -6.10785 0.971258
thorax -4.21455 -2.91412 3.65389
lowerneck -18.1437 -1.62924 -4.6715
upperneck 18.5567 -2.43493 6.15992
head 8.94096 -0.852185 2.55851
rclavicle -5.1684e-014 1.19271e-015
rhumerus -52.1721 6.83736 -75.6581
rradius 59.9878
rwrist 0.143313
rhand -6.96285 -6.87833
rfingers 7.12502
rthumb 18.9065 -35.9795
lclavicle -5.1684e-014 1.19271e-015
lhumerus -15.2398 -4.9741 88.1191
lradius 66.2624
lwrist 4.40688
lhand -12.4154 3.43161
lfingers 7.12502
lthumb 13.6567 32.9636
rfemur -57.3054 -10.0681 16.5611
rtibia 72.172
rfoot 192.849 1.78496
rtoes 23.2599
lfemur -3.40485 -2.06389 -27.0629
ltibia 22.9685
lfoot 348.467 -0.758222
ltoes 6.51081
146
root 10.8445 17.8182 4.90367 231.008 -86.6529 -234.695
lowerback 5.23996 -4.64581 -4.25498
upperback -1.8642 -6.46485 0.995808
thorax -4.27961 -3.07919 3.94536
lowerneck -18.2067 -1.47613 -4.56728
upperneck 18.5476 -2.22076 6.04394
head 8.93347 -0.754959 2.52914
rclavicle -4.85532e-014 6.36111e-015
rhumerus -53.0099 6.60975 -75.0285
rradius 59.9022
rwrist -0.0895653
rhand -6.90571 -6.89366
rfingers 7.12502
rthumb 18.9615 -35.9894
lclavicle -4.85532e-014 6.36111e-015
lhumerus -13.8005 -5.08956 87.6628
lradius 66.7394
lwrist 4.53019
lhand -12.2791 3.30268
lfingers 7.12502
lthumb 13.788 32.8258
rfemur -60.3824 -10.2178 16.8746
rtibia 71.5328
rfoot 192.77 1.89121
rtoes 24.1506
lfemur -2.40339 -2.41288 -27.4474
ltibia 22.5526
lfoot 348.382 -0.669462
ltoes 6.20409
147
root 10.7152 17.8298 4.89564 235.839 -86.6562 -239.728
lowerback 5.54613 -4.85852 -4.53039
upperback -1.80266 -6.77981 1.02157
thorax -4.32455 -3.22664 4.17096
lowerneck -18.2692 -1.33306 -4.45801
upperneck 18.5587 -2.02382 5.92825
head 8.93435 -0.665655 2.49703
rclavicle 4.24405e-014 -5.56597e-015
rhumerus -53.8243 6.42229 -74.4541
rradius 59.8114
rwrist -0.18551
rhand -6.9054 -6.80442
rfingers 7.12502
rthumb 18.9618 -35.9002
lclavicle 4.24405e-014 -5.56597e-015
lhumerus -12.4134 -5.2271 87.1657
lradius 67.1432
lwrist 4.66562
lhand -12.111 3.20315
lfingers 7.12502
lthumb 13.95 32.7152
rfemur -63.4164 -10.2217 17.2181
rtibia 71.1993
rfoot 192.795 1.95106
rtoes 24.8295
lfemur -1.50955 -2.7613 -27.7694
ltibia 22.1692
lfoot 348.288 -0.539343
ltoes 5.82883
148
root 10.5838 17.8421 4.88787 239.331 -86.6455 -243.339
lowerback 5.7716 -5.04926 -4.71044
upperback -1.77827 -7.0568 1.05147
thorax -4.37396 -3.35714 4.34124
lowerneck -18.3446 -1.20093 -4.35811
upperneck 18.6025 -1.84303 5.8204
head 8.95031 -0.583784 2.4676
rclavicle -6.90777e-015 -1.59028e-015
rhumerus -54.6138 6.27837 -73.9297
rradius 59.7091
rwrist -0.150246
rhand -6.97251 -6.68164
rfingers 7.12502
rthumb 18.8973 -35.7837
lclavicle -6.90777e-015 -1.59028e-015
lhumerus -11.0966 -5.36095 86.6438
lradius 67.4679
lwrist 4.77237
lhand -11.9975 3.13115
lfingers 7.12502
lthumb 14.0594 32.6356
rfemur -66.3814 -10.0906 17.5786
rtibia 71.1507
rfoot 192.924 1.95745
rtoes 25.2835
lfemur -0.712019 -3.11777 -28.038
ltibia 21.8233
lfoot 348.172 -0.365584
ltoes 5.39159
149
root 10.4511 17.8549 4.87995 241.469 -86.6454 -245.534
lowerback 5.9341 -5.21347 -4.80584
upperback -1.78179 -7.28981 1.09109
thorax -4.42859 -3.46741 4.4682
lowerneck -18.3886 -1.08385 -4.27592
upperneck 18.6362 -1.68228 5.7264
head 8.95896 -0.511779 2.44306
rclavicle -1.47598e-014 1.03368e-014
rhumerus -55.3825 6.17218 -73.4538
rradius 59.5953
rwrist -0.020147
rhand -7.07763 -6.53296
rfingers 7.12502
rthumb 18.7962 -35.6448
lclavicle -1.47598e-014 1.03368e-014
lhumerus -9.84317 -5.48907 86.1155
lradius 67.703
lwrist 4.8179
lhand -11.9006 3.04054
lfingers 7.12502
lthumb 14.1528 32.5385
rfemur -69.2398 -9.83239 17.9621
rtibia 71.3631
rfoot 193.154 1.92334
rtoes 25.69
lfemur 0.00850653 -3.46836 -28.2333
ltibia 21.5118
lfoot 348.038 -0.175238
ltoes 4.94123
150
root 10.3169 17.8682 4.8719 242.777 -86.6349 -246.885
lowerback 6.07829 -5.35303 -4.86487
upperback -1.79879 -7.48687 1.12931
thorax -4.49447 -3.56011 4.57093
lowerneck -18.4192 -0.975261 -4.20895
upperneck 18.679 -1.53353 5.64644
head 8.96953 -0.445386 2.42441
rclavicle 4.08006e-014 1.82882e-014
rhumerus -56.1139 6.09003 -73.0158
rradius 59.4611
rwrist 0.148963
rhand -7.16868 -6.38046
rfingers 7.12502
rthumb 18.7086 -35.5008
lclavicle 4.08006e-014 1.82882e-014
lhumerus -8.66681 -5.58941 85.6063
lradius 67.8562
lwrist 4.7902
lhand -11.8323 2.95615
lfingers 7.12502
lthumb 14.2186 32.4495
rfemur -71.931 -9.48901 18.3212
rtibia 71.8053
rfoot 193.409 1.82778
rtoes 25.9072
lfemur 0.706325 -3.80714 -28.4079
ltibia 21.2296
lfoot 347.884 0.0228242
ltoes 4.48744
151
root 10.1816 17.8814 4.86344 243.45 -86.6388 -247.622
lowerback 6.24021 -5.47307 -4.88863
upperback -1.80955 -7.65577 1.1696
thorax -4.57034 -3.63939 4.65691
lowerneck -18.4395 -0.875893 -4.15455
upperneck 18.7152 -1.39842 5.58519
head 8.9772 -0.384493 2.4124
rclavicle -3.32964e-015 2.62396e-014
rhumerus -56.7929 6.02412 -72.6224
rradius 59.3087
rwrist 0.265207
rhand -7.22113 -6.33866
rfingers 7.12502
rthumb 18.6581 -35.4638
lclavicle -3.32964e-015 2.62396e-014
lhumerus -7.56287 -5.65177 85.1277
lradius 67.9415
lwrist 4.70443
lhand -11.7781 2.87699
lfingers 7.12502
lthumb 14.2708 32.3666
rfemur -74.4014 -9.09099 18.6696
rtibia 72.4462
rfoot 193.664 1.67263
rtoes 25.9467
lfemur 1.41503 -4.10741 -28.5355
ltibia 20.979
lfoot 347.722 0.192208
ltoes 4.03987
152
root 10.0459 17.8942 4.85456 243.574 -86.6635 -247.853
lowerback 6.43189 -5.57902 -4.88237
upperback -1.79887 -7.80425 1.21031
thorax -4.64613 -3.70965 4.72819
lowerneck -18.472 -0.783583 -4.1038
upperneck 18.7576 -1.27429 5.53431
head 8.99007 -0.327747 2.40331
rclavicle -3.85145e-014 2.38542e-015
rhumerus -57.4024 5.97004 -72.2749
rradius 59.1365
rwrist 0.320143
rhand -7.26439 -6.27375
rfingers 7.12502
rthumb 18.6165 -35.4029
lclavicle -3.85145e-014 2.38542e-015
lhumerus -6.53588 -5.6681 84.6798
lradius 67.9812
lwrist 4.5991
lhand -11.7439 2.80906
lfingers 7.12502
lthumb 14.3038 32.2964
rfemur -76.6151 -8.65797 19.0086
rtibia 73.2565
rfoot 193.932 1.44784
rtoes 25.8668
lfemur 2.14502 -4.34297 -28.6094
ltibia 20.775
lfoot 347.557 0.31342
ltoes 3.58165
153
root 9.90945 17.9064 4.84574 243.233 -86.7133 -247.668
lowerback 6.66284 -5.67497 -4.84547
upperback -1.76601 -7.93785 1.2541
thorax -4.72572 -3.77353 4.78878
lowerneck -18.5298 -0.696383 -4.04784
upperneck 18.8126 -1.15757 5.48013
head 9.01235 -0.274094 2.39161
rclavicle -4.96962e-014 -2.38542e-015
rhumerus -57.9464 5.93308 -71.9755
rradius 58.9657
rwrist 0.296635
rhand -7.28524 -6.27897
rfingers 7.12502
rthumb 18.5965 -35.4101
lclavicle -4.96962e-014 -2.38542e-015
lhumerus -5.59893 -5.62501 84.2721
lradius 67.9995
lwrist 4.50148
lhand -11.7114 2.77586
lfingers 7.12502
lthumb 14.3351 32.261
rfemur -78.559 -8.21603 19.3444
rtibia 74.1938
rfoot 194.168 1.14302
rtoes 25.5734
lfemur 2.91465 -4.52959 -28.637
ltibia 20.5927
lfoot 347.414 0.40285
ltoes 3.10177
154
root 9.77236 17.9176 4.83685 242.401 -86.7887 -247.026
lowerback 6.9199 -5.76501 -4.77807
upperback -1.71192 -8.06117 1.30195
thorax -4.80218 -3.83361 4.83869
lowerneck -18.6174 -0.612324 -3.98791
upperneck 18.8766 -1.04629 5.42924
head 9.04359 -0.221899 2.38006
rclavicle -8.05078e-015 2.38542e-015
rhumerus -58.4221 5.91586 -71.728
rradius 58.809
rwrist 0.220506
rhand -7.28128 -6.37601
rfingers 7.12502
rthumb 18.6003 -35.5067
lclavicle -8.05078e-015 2.38542e-015
lhumerus -4.75118 -5.52593 83.8965
lradius 68.0191
lwrist 4.44738
lhand -11.6812 2.76085
lfingers 7.12502
lthumb 14.3642 32.2439
rfemur -80.2443 -7.77112 19.684
rtibia 75.2283
rfoot 194.38 0.770708
rtoes 25.0903
lfemur 3.70041 -4.65932 -28.6121
ltibia 20.4439
lfoot 347.297 0.455101
ltoes 2.56175
155
root 9.63458 17.9276 4.82791 241.187 -86.8767 -246.005
lowerback 7.16561 -5.85096 -4.69363
upperback -1.64731 -8.17618 1.353
thorax -4.86387 -3.89089 4.88058
lowerneck -18.7072 -0.531102 -3.9256
upperneck 18.93 -0.938872 5.37825
head 9.07191 -0.171285 2.36751
rclavicle 7.05686e-015 -7.95139e-016
rhumerus -58.8357 5.91957 -71.5334
rradius 58.673
rwrist 0.125096
rhand -7.22961 -6.54392
rfingers 7.12502
rthumb 18.65 -35.6699
lclavicle 7.05686e-015 -7.95139e-016
lhumerus -4.00623 -5.38106 83.5512
lradius 68.0615
lwrist 4.45288
lhand -11.6362 2.76825
lfingers 7.12502
lthumb 14.4076 32.2482
rfemur -81.7084 -7.33699 20.0266
rtibia 76.3206
rfoot 194.555 0.35648
rtoes 24.4486
lfemur 4.46455 -4.75164 -28.5515
ltibia 20.3331
lfoot 347.216 0.474485
ltoes 1.94622
